<svg version="1.0" xmlns="http://www.w3.org/2000/svg" width="796" height="796" viewBox="0 0 597 597"><path d="M293.6 2.4c-.9 1.4-1.6 2.9-1.6 3.4 0 2.8-4 4.1-16 5.2-67.2 6-125.8 31.6-174.5 76.2-2.8 2.6-10.9 5.8-18.1 7.3-1.8.3-3.9 1.4-4.9 2.5-2 2.2-5.8 1.4 50 11 22.5 3.9 41 7.2 41.1 7.3 0 .1 8.6 20.3 18.9 44.8l18.9 44.6 6.1-5.2c21-17.7 44.2-27.7 71.6-30.8l11.3-1.3 22.7-41.9c21.5-39.6 22.7-42 21.4-44.4-4.1-8-43.8-79.7-44.4-80.4-.5-.4-1.5.3-2.5 1.7zM223 73.9c2.5 4.8-.8 11.9-5.1 10.8-1.5-.4-1.9 0-1.9 1.9 0 1.7-.6 2.4-2 2.4-1.8 0-2-.7-2-8.5V72h5c3.8 0 5.2.4 6 1.9zm12-.7c0 .9.3.9 1.2 0 2-2 7.6-1.5 8.8.7 2 3.9 1.3 5.1-3.1 5.1-3.6 0-4 .2-2.9 1.5.8.9 2.1 1.3 3.6.9 1.8-.5 2.4-.2 2.4 1 0 2.1-4.2 3.1-7 1.6-2.4-1.3-4.2-5.3-3.4-7.5.5-1.1-.1-1.5-2-1.5-2.4 0-2.6.3-2.6 4.5 0 3.8-.3 4.5-2 4.5-1.8 0-2-.7-2-6v-6h4.5c2.8 0 4.5.4 4.5 1.2z"/><path d="M320.1 8.2c.7 1.3 10.1 18.6 21.1 38.5C352.1 66.6 361 83.4 361 83.9c0 .6.5 1.1 1.2 1.1.6 0 1.9.7 2.9 1.5 1.3 1.2 1.5 2.4.9 4.9-.6 2.8-9.5 20.7-12 24.1-.4.5-3.1 5.5-6 11s-7.5 13.9-10.1 18.8c-2.7 4.8-4.9 9.1-4.9 9.5 0 1.9-5.1 5.4-9.6 6.5-3.7.9-5.2 1.9-6.6 4.3l-1.8 3.1 8.3 1.6c25.3 5 47.7 16.9 66.9 35.5l9.8 9.5 46.8-8.3 46.7-8.3 18.4-43.9 18.3-43.9-2.8-3.7c-4.6-6.2-32.3-33.4-41.4-40.6-20.2-16.1-63.1-41.7-61.5-36.8.3 1.1.2 2.3-.4 2.6-.8.5-25.7-6.4-27.9-7.8-1.5-.9-27.8-7.5-36.3-9.1-4.7-.8-13.4-2.2-19.4-3-7.6-1-12.3-2.2-15.8-4-6-3.1-6.1-3.1-4.6-.3zM68.5 126c-2.9 1.2-5.4 4.3-12.7 15.5-14.8 22.7-24.6 43-33.3 69-4.6 13.6-10.5 34.2-11.8 41.1-.5 2.2-1.5 5-2.9 8.1-.6 1.1-.7 2.6-.3 3.2.9 1.6-1.8.9-3.1-.8-1.7-2.1-2.3 1.3-3.4 20.4-.7 11.3-.7 21.9 0 33.3 1 14.9 2.6 30.1 3.3 30.8.2.2 16-13.6 35.1-30.6 19.2-17.1 35-31 35.2-31 .5 0 90.6 25.1 92 25.7.8.3 1.3-4.5 1.7-15.4 1-27.5 7.3-47.6 21.2-68.4l5.4-8-18.8-44.2c-17.2-40.6-18.9-44.2-21.1-44.2-1.6 0-2.9 1-4 3-1 1.8-2.6 3.1-4.1 3.3-2.2.3-20.4-2.7-57.7-9.3-15.2-2.7-17.6-2.8-20.7-1.5zM66 210.5c.7.8 1 2.4.7 3.6-.3 1.2-.1 2.9.6 3.9.8 1.4.8 2.5-.1 4.4-1 2.3-1.7 2.6-6.7 2.6H55v-16h4.9c3.1 0 5.3.5 6.1 1.5zm37 4.4c2.5 4.8-.8 11.9-5.1 10.8-1.5-.4-1.9 0-1.9 1.9 0 1.7-.6 2.4-2 2.4-1.8 0-2-.7-2-8.5V213h5c3.8 0 5.2.4 6 1.9z"/><path d="M545.6 136.1c-.3 1.7-.6 4.2-.6 5.6 0 1.3-1.1 4.5-2.4 7.1-2 4-13.8 31.9-23.4 55.2-5 12.4-9.9 18-17.3 20-2.1.6-10.3 2.2-18.2 3.6-7.8 1.4-20.3 3.6-27.7 5-36.7 6.5-32.1 6.2-41.7 2.7-.7-.3.3 2.9 2.2 7 5.1 10.9 9.1 23.9 10.9 34.7 1.5 9 2.3 33.8 1.3 37-.3.8-.9 3.9-1.5 6.7l-.9 5.3 35.8 31.5 35.8 31.5 45.7-13c25.1-7.1 45.8-13.1 46.1-13.3.7-.7 3.3-15.7 4.7-27.5 7.3-59-3.1-118.8-29.7-171.2-5.6-11.1-17.3-31-18.1-31-.2 0-.6 1.4-1 3.1zm-466 180.3c-2.4 1.3-14.2 11.5-28.2 24.3-1.7 1.5-4.6 4.1-6.5 5.8-1.9 1.6-8.7 7.7-15.2 13.4-11.6 10.2-11.7 10.3-16.2 9.9-2.5-.2-4.5 0-4.5.4 0 2.3 7.9 27.2 11.7 36.8 23.9 60.5 65.6 110.6 121.4 145.4 5.7 3.6 10.4 6.4 10.6 6.2.2-.1-.8-21.1-2.2-46.6-2.4-44.3-2.4-46.5-.8-48.1 1-.9 18.8-13.9 39.6-28.9l37.8-27.2-5.3-3.6c-7.5-5-25.4-23.4-31.2-32.1-6.7-10-12.9-22.8-16.4-33.6-2.6-8-3.3-9-5.8-9.7-3-.8-3.3-.6-6.7 4.6-1.2 1.8-1.5 1.8-7.2.1-3.3-.9-6.4-1.8-7-2-.5-.1-1.7-.5-2.5-.8-.8-.3-10-2.9-20.5-5.7-10.4-2.8-21.9-6.1-25.5-7.2-9.1-2.8-15.8-3.3-19.4-1.4zM51.1 390c.7 2.2 1.5 4 1.9 4 .4 0 1.2-1.8 1.9-4 1-3.3 1.6-4 3.6-4 2.4 0 2.5.2 2.5 8 0 7.3-.2 8-2 8-1.6 0-2-.7-2.1-3.8l-.1-3.7-1.4 3.2c-.8 1.8-1.9 3.3-2.5 3.3-.5 0-1.6-1.5-2.4-3.3l-1.4-3.2-.1 3.7c0 3.1-.4 3.8-2 3.8-1.8 0-2-.7-2-8 0-7.8.1-8 2.5-8 2 0 2.6.7 3.6 4zm72.9 4.4c0 5.9 2.2 7.8 4 3.5 1.2-2.8 1.1-3.3-.3-4.4-.9-.7-1.7-1.7-1.7-2.4 0-1.9 3.8-1.2 5.4 1.1l1.6 2.2v-2.2c0-1.5.6-2.2 2-2.2 1.2 0 2 .7 2 1.7.1 1.7.1 1.7 1.1 0 1.1-1.9 4.9-2.4 4.9-.6 0 .7-.8 1.8-1.7 2.5-1.7 1.2-1.7 1.4 0 4.2 2.1 3.8 2.1 4.2-.1 4.2-1.1 0-2.4-1-3-2.3l-1.1-2.2v2.2c-.1 3.6-4.1 3.1-4.1-.5l-.1-2.7-1.5 2.7c-.8 1.6-2.3 2.8-3.4 2.8-1.3 0-2.2.9-2.6 2.5-.3 1.4-1.2 2.5-2 2.5s-1.4-1-1.4-2.5c0-2.1-.5-2.5-2.9-2.5-2.3 0-3 .5-3.3 2.2-.2 1.3-1.1 2.4-2 2.6-1.5.3-1.8-.4-1.8-3.7 0-2.2.5-4.3 1-4.6.6-.3 1-2.4 1-4.6V390h10v4.4zm43-2.5c2.5 4.8-.8 11.9-5.1 10.8-1.5-.4-1.9 0-1.9 1.9 0 1.7-.6 2.4-2 2.4-1.8 0-2-.7-2-8.5V390h5c3.8 0 5.2.4 6 1.9z"/><path d="M427 353.2c0 2.1-1 4.9-2.4 6.9-1.4 1.9-4.1 6.3-6.2 9.9-9.1 15.8-26.7 34.7-41.4 44.4-4.1 2.7-9 6.3-10.9 7.9-2.6 2.2-4.2 2.8-6.6 2.5l-3.2-.4-.7 16.6c-.4 9.1-1.4 28.6-2.1 43.5-.8 14.8-1.3 27-1.2 27 .1.1 17.3 12.4 38.3 27.3 21 15 38.7 27.2 39.5 27.2 1.9 0 23.9-12.6 34.7-19.9 16.4-11 27.7-20.5 43.8-36.5 22-22 34.8-38.6 49.4-64 12.1-21 29.4-63.6 25.8-63.6-.5 0-4.2 3.1-8.2 6.9-3.9 3.7-8 7.3-9.2 7.9-3 1.6-60.8 18-65.7 18.7-4.9.7-8.6-.9-10.4-4.5-.9-1.8-.9-2.8 0-3.8.9-1.1.7-1.8-.9-3.1-1.1-.9-14.8-12.9-30.4-26.6-35.8-31.4-32-28.5-32-24.3zm24.8 111c.3 5.3.1 5.8-1.8 5.8-1.7 0-2-.6-2-4.6 0-5.9-2.4-5.5-2.8.4-.3 3.4-.7 4.2-2.3 4.2-1.6 0-1.9-.7-1.9-4.6 0-5.9-2.4-5.5-2.8.4-.3 3.4-.7 4.2-2.3 4.2-1.7 0-1.9-.7-1.9-6v-6l8.8.2 8.7.3.3 5.7z"/><path d="M332 429.4c-2.9 3.5-6.3 6.7-7.6 7-5.8 1.5-23.7 2.7-31.4 2.1-11.2-.9-24.8-3.7-33.4-6.9-7.1-2.7-12.8-3.3-16.8-1.7-2.8 1.1-59.8 42-65.2 46.8-3.2 3-4.4 3.4-7.7 3.1-3-.3-3.9 0-3.9 1.2 0 .8.9 17.7 2 37.5s2 39 2 42.6v6.6l7.8 3.5c65.6 29.9 143.8 33.6 214.8 10.3 22-7.2 24.4-2.9-19.1-34-20.7-14.7-37.9-27.5-38.2-28.3-.4-.8.4-21.8 1.6-46.6 2.4-51.4 2.4-49.6 1.2-49.6-.5 0-3.2 2.9-6.1 6.4zm-67 73c0 1.9.6 2.5 2.7 2.8 5.4.6 5.2 11-.3 12.4-1.5.4-2.4 1.4-2.4 2.5 0 1.2-.7 1.9-2 1.9s-2-.7-2-1.9-.9-2.1-2.5-2.5c-1.5-.4-2.7-1.6-3.1-3.1-.5-2.2-1.2-2.5-5.1-2.5-3.9 0-4.4.2-3.3 1.5.8.9 2.1 1.3 3.6.9 1.8-.5 2.4-.2 2.4 1 0 .8-1.1 1.8-2.4 2.2-5.3 1.3-9.8-4.4-7.4-9.4 1-2.1 2.2-2.8 5.1-3 3.1-.3 3.9.1 4.9 2.2l1.1 2.6 1.1-2.3c.6-1.2 2.2-2.3 3.4-2.5 1.6-.2 2.2-1 2.2-2.8 0-1.7.5-2.4 2-2.4s2 .7 2 2.4z"/></svg>